<svg xmlns="http://www.w3.org/2000/svg" viewBox="0 0 512 512" width="512" height="512">
  <defs>
    <linearGradient id="ajarkit-grad-mask" x1="0" y1="0" x2="1" y2="1">
      <stop offset="0" stop-color="#2B59E0"/>
      <stop offset="1" stop-color="#7C5CE0"/>
    </linearGradient>
  </defs>
  <rect width="512" height="512" fill="url(#ajarkit-grad-mask)"/>
  <!-- glyph dijaga dalam zona aman maskable (~62%) -->
  <g transform="translate(256 256) scale(0.62) translate(-256 -256)" fill="none" stroke="#FFFFFF" stroke-width="26" stroke-linecap="round" stroke-linejoin="round">
    <path d="M150 138a26 26 0 0 1 26-26h120l62 62v176a26 26 0 0 1-26 26H176a26 26 0 0 1-26-26z"/>
    <path d="M296 112v62h62"/>
    <path d="M186 212h120M186 254h120M186 296h74"/>
  </g>
  <path d="M256 256 m0 0" />
  <g transform="translate(256 256) scale(0.62) translate(-256 -256)">
    <path d="M372 300l20 44 44 20-44 20-20 44-20-44-44-20 44-20z" fill="#FFFFFF"/>
  </g>
</svg>
